<svg width="335" height="500" xmlns="http://www.w3.org/2000/svg">
 <defs>
  <linearGradient y2="0.274902" y1="0.714641" x2="0.884019" x1="0.22792" id="linear-gradient">
   <stop stop-color="#41dfd0" offset="0"/>
   <stop stop-color="#ee83ef" offset="1"/>
  </linearGradient>
 </defs>
 <g>
  <title>background</title>
  <rect fill="none" id="canvas_background" height="502" width="337" y="-1" x="-1"/>
 </g>
 <g>
  <title>Layer 1</title>
  <g id="gradient">
   <path id="svg_1" fill="url(#linear-gradient)" d="m184.115055,115.275a68.453,68.453 0 0 1 -0.034,-55.914l0.054,-0.119a8,8 0 1 1 14.558,6.637l-0.03,0.066a52.413,52.413 0 0 0 0.05,42.78a8,8 0 1 1 -14.6,6.55l0.002,0zm-106.9,212.778l-15.31,-6.753a8,8 0 1 0 -6.463,14.637l15.307,6.757a30.827,30.827 0 0 1 17.02,19.138a8,8 0 0 0 15.292,-4.709a46.824,46.824 0 0 0 -25.846,-29.07zm168.391,-105.453a7.97,7.97 0 0 0 5.5,-2.189a44.453,44.453 0 0 0 13.845,-32.159l0,-20.041a8,8 0 0 0 -16,0l0,20.044a28.383,28.383 0 0 1 -8.841,20.536a8,8 0 0 0 5.5,13.812l-0.004,-0.003zm76.417,270.95a8,8 0 0 1 -11.214,-1.5l-75.465,-98.7l-32.311,-2.05a65.977,65.977 0 0 1 -48.224,-25.776l-25.75,-33.678q-1.422,-1.857 -2.832,-3.73a8,8 0 0 1 2.868,-12l4.349,-2.13l-22.874,-9.686a8,8 0 0 1 -3.488,-2.856a700.8,700.8 0 0 1 -69.215,-128.3a8,8 0 0 1 3.88,-10.229l5.668,-2.775l-13.77,-4.813a8,8 0 0 1 -4.786,-4.573l-20.553,-51.238a61.1,61.1 0 0 1 29.709,-77.3a60.85,60.85 0 0 1 82.4,30l28.885,65.217c1.313,2.964 2.661,5.95 4.006,8.874a8,8 0 0 1 -0.294,7.264l-8.132,14.462l8.048,-3.94a8,8 0 0 1 10.666,3.59a685.7,685.7 0 0 0 53.178,88.419a8,8 0 0 1 1.457,4.095l2.395,35.786a73.724,73.724 0 0 0 0.962,7.924l5.642,-13.633a8,8 0 0 1 14.25,-1.059l15.046,25.051a65.864,65.864 0 0 1 5.86,55.371l-12.469,36.429l73.6,96.272a8,8 0 0 1 -1.492,11.215l0,-0.003zm-119.608,-250.033q-3.387,-4.809 -6.7,-9.682l-16.191,60.059c1.771,2.381 3.545,4.76 5.348,7.119l53.352,69.778l9.02,-26.335a49.89,49.89 0 0 0 -4.439,-41.947l-6.87,-11.438l-7.8,18.845a8,8 0 0 1 -14.577,0.459a88.9,88.9 0 0 1 -8.9,-33.318l-2.243,-33.54zm-94.211,-179.365l-23.443,54.411l8.729,21.764a683.4,683.4 0 0 0 73.981,136.829l16.5,-61.222c-11.149,-17.54 -21.552,-35.593 -31.076,-54l-24.073,11.788a8,8 0 0 1 -10.492,-11.106l18.741,-33.333c-0.807,-1.783 -1.61,-3.575 -2.4,-5.36l-26.467,-59.771zm-57.278,-29.945l25.436,63.416l21.076,-48.918a8.054,8.054 0 0 1 0.93,-1.6a44.941,44.941 0 0 0 -47.442,-12.9l0,0.002zm25.189,124.221a8,8 0 0 1 -4.467,7.661l-16.095,7.881q11.323,26.681 24.905,52.376l39.309,5.248a699.455,699.455 0 0 1 -41.126,-85.31l-9.933,-24.763c-0.027,-0.066 -0.054,-0.133 -0.08,-0.2l-31.867,-79.45a45.077,45.077 0 0 0 -13.606,51.689l19.2,47.863l28.413,9.93a8,8 0 0 1 5.347,7.075zm146.342,218.072l-50.29,-65.773a699.29,699.29 0 0 1 -42.076,-61.616l-40.09,-5.353q13.554,23.94 28.976,46.721l36.858,15.6a8,8 0 0 1 0.4,14.552l-11.353,5.559l22.633,29.61a49.986,49.986 0 0 0 36.534,19.528l18.408,1.172z"/>
  </g>
 </g>
</svg>